# File created by Blade
# Date/Time:  Tue Apr 07 20:13:55 2015
# Frame Rate: 120.000 fps
#------------------------------------------------------
:FULLY-SPECIFIED
:DEGREES
1329
root 1.543798 33.302271 -7.000400 -46.053881 42.940181 -36.976446
Spine 20.758330 -14.459261 6.625982
Head 10.068390 -4.039322 12.812407
LeftShoulder 0.500845 34.882596 30.044798
LeftArm 79.985375 24.778110 -39.116296
LeftForeArm -62.605479 -0.000000 94.107342
LeftHand 5.230813 -0.000000 38.362558
LeftHandThumb1 -26.253704 0.000000 33.147579
RightShoulder -3.033912 -5.793053 -18.452228
RightArm 15.209102 -21.154661 73.179588
RightForeArm 40.191048 0.000000 94.722716
RightHand 2.157636 -0.000000 18.433161
RightHandThumb1 -24.326973 -0.000000 -32.862282
LeftUpLeg 5.633708 0.665162 26.352933
LeftLeg 29.876510 -0.000000 -0.000000
LeftFoot -11.374551 -15.043316 -32.537048
LeftToeBase 3.873994 -0.000000 -0.000000
RightUpLeg -121.318581 -5.642410 14.415515
RightLeg 75.722627 -0.000000 -0.000000
RightFoot 44.000610 -5.587821 2.528283
RightToeBase 36.995556 -0.000000 -0.000000
1330
root 1.494892 33.343591 -6.951498 -46.691965 42.611029 -38.136519
Spine 20.393837 -14.635109 7.453684
Head 10.293677 -4.279816 13.085848
LeftShoulder 0.666466 34.854521 30.206206
LeftArm 79.861197 24.780833 -39.281290
LeftForeArm -63.092933 -0.000000 93.954788
LeftHand 5.251170 0.000000 38.288526
LeftHandThumb1 -26.253704 0.000000 33.147579
RightShoulder -3.108116 -5.775192 -18.388041
RightArm 15.184680 -21.110963 73.144456
RightForeArm 40.003494 -0.000000 95.094666
RightHand 2.011797 -0.000000 18.038798
RightHandThumb1 -24.326973 -0.000000 -32.862282
LeftUpLeg 5.144656 0.459422 27.389042
LeftLeg 30.120886 -0.000000 -0.000000
LeftFoot -11.067244 -15.199912 -32.604030
LeftToeBase 3.600809 -0.000000 -0.000000
RightUpLeg -121.203254 -6.227912 13.925691
RightLeg 75.711690 -0.000000 -0.000000
RightFoot 44.173435 -5.507933 2.098475
RightToeBase 36.655608 -0.000000 -0.000000
1331
root 1.445588 33.386790 -6.905508 -47.381989 42.283894 -39.359118
Spine 20.046755 -14.847186 8.336662
Head 10.491186 -4.522748 13.310809
LeftShoulder 0.854041 34.803142 30.349931
LeftArm 79.729840 24.791349 -39.452910
LeftForeArm -63.598428 -0.000000 93.800415
LeftHand 5.512934 0.000000 38.501216
LeftHandThumb1 -26.253704 0.000000 33.147579
RightShoulder -3.179897 -5.783986 -18.328982
RightArm 15.216403 -21.046250 73.057651
RightForeArm 39.633100 -0.000000 95.450151
RightHand 2.046277 -0.000000 17.935897
RightHandThumb1 -24.326973 -0.000000 -32.862282
LeftUpLeg 4.663958 0.222706 28.440114
LeftLeg 30.302488 -0.000000 -0.000000
LeftFoot -10.821241 -15.294779 -32.543694
LeftToeBase 3.613451 -0.000000 -0.000000
RightUpLeg -121.068374 -6.875974 13.473376
RightLeg 75.750690 -0.000000 -0.000000
RightFoot 44.234004 -5.275039 1.538528
RightToeBase 37.097360 -0.000000 -0.000000
1332
root 1.398136 33.432870 -6.861171 -48.116419 41.936255 -40.631062
Spine 19.711588 -15.084651 9.276854
Head 10.650860 -4.724414 13.517621
LeftShoulder 0.971765 34.767925 30.437972
LeftArm 79.698553 24.781787 -39.585479
LeftForeArm -63.923690 -0.000000 93.526336
LeftHand 6.395168 -0.000000 39.185196
LeftHandThumb1 -26.253704 0.000000 33.147579
RightShoulder -3.252137 -5.784558 -18.229525
RightArm 15.282031 -20.970290 72.850852
RightForeArm 39.201344 -0.000000 95.816818
RightHand 1.954949 -0.000000 17.789711
RightHandThumb1 -24.326973 -0.000000 -32.862282
LeftUpLeg 4.225548 -0.060909 29.504588
LeftLeg 30.391025 -0.000000 -0.000000
LeftFoot -10.658529 -15.303027 -32.421894
LeftToeBase 3.608311 -0.000000 -0.000000
RightUpLeg -120.886429 -7.573954 13.053052
RightLeg 75.822281 -0.000000 -0.000000
RightFoot 44.257577 -5.149275 1.106235
RightToeBase 37.196672 -0.000000 -0.000000
1333
root 1.353673 33.480369 -6.820098 -48.863869 41.598781 -41.875082
Spine 19.411833 -15.314128 10.204826
Head 10.800968 -4.967289 13.692318
LeftShoulder 1.113173 34.739935 30.547130
LeftArm 79.669683 24.771098 -39.752325
LeftForeArm -64.369724 0.000000 93.199433
LeftHand 6.773055 0.000000 39.246024
LeftHandThumb1 -26.253704 0.000000 33.147579
RightShoulder -3.307515 -5.734390 -18.148972
RightArm 15.218591 -20.810912 72.754893
RightForeArm 38.981627 -0.000000 96.163350
RightHand 1.939459 -0.000000 17.600687
RightHandThumb1 -24.326973 -0.000000 -32.862282
LeftUpLeg 3.850082 -0.388772 30.510547
LeftLeg 30.405134 -0.000000 -0.000000
LeftFoot -10.572395 -15.207038 -32.220760
LeftToeBase 3.678512 -0.000000 -0.000000
RightUpLeg -120.663700 -8.314434 12.637924
RightLeg 75.935670 -0.000000 -0.000000
RightFoot 44.338477 -4.974306 0.684468
RightToeBase 36.953291 -0.000000 -0.000000
1334
root 1.311122 33.529151 -6.780388 -49.612625 41.274547 -43.119534
Spine 19.115776 -15.533872 11.130254
Head 10.917980 -5.248904 13.873330
LeftShoulder 1.207352 34.747708 30.624757
LeftArm 79.732008 24.723072 -39.853318
LeftForeArm -64.934407 0.000000 92.849800
LeftHand 6.617765 -0.000000 38.794341
LeftHandThumb1 -26.253704 0.000000 33.147579
RightShoulder -3.383914 -5.729874 -18.050922
RightArm 15.164875 -20.613487 72.661931
RightForeArm 38.636676 -0.000000 96.541568
RightHand 1.772177 0.000000 17.047528
RightHandThumb1 -24.326973 -0.000000 -32.862282
LeftUpLeg 3.496869 -0.739468 31.488435
LeftLeg 30.352344 -0.000000 -0.000000
LeftFoot -10.573265 -15.049970 -31.960274
LeftToeBase 3.961361 -0.000000 -0.000000
RightUpLeg -120.426254 -9.075869 12.199826
RightLeg 76.111924 -0.000000 -0.000000
RightFoot 44.442022 -4.775774 0.199349
RightToeBase 37.009475 -0.000000 -0.000000
1335
root 1.262632 33.580349 -6.741807 -50.351812 40.917072 -44.393884
Spine 18.788456 -15.745077 12.107848
Head 11.038529 -5.503914 14.057501
LeftShoulder 1.352627 34.713769 30.729515
LeftArm 79.746448 24.688480 -39.985845
LeftForeArm -65.423782 -0.000000 92.549569
LeftHand 6.473228 -0.000000 38.371384
LeftHandThumb1 -26.253704 0.000000 33.147579
RightShoulder -3.440967 -5.722615 -17.956840
RightArm 15.085685 -20.420017 72.550562
RightForeArm 38.150273 0.000000 96.937127
RightHand 1.785185 -0.000000 16.548949
RightHandThumb1 -24.326973 -0.000000 -32.862282
LeftUpLeg 3.140965 -1.113402 32.490395
LeftLeg 30.211281 -0.000000 -0.000000
LeftFoot -10.614333 -14.812933 -31.837430
LeftToeBase 3.913267 -0.000000 -0.000000
RightUpLeg -120.171222 -9.839600 11.783923
RightLeg 76.296672 -0.000000 -0.000000
RightFoot 44.532469 -4.578729 -0.319057
RightToeBase 37.534402 -0.000000 -0.000000
1336
root 1.218029 33.632859 -6.702786 -51.088756 40.568934 -45.637991
Spine 18.473716 -15.944239 13.067301
Head 11.150434 -5.791412 14.215580
LeftShoulder 1.454378 34.583579 30.799726
LeftArm 79.724610 24.737118 -40.111577
LeftForeArm -65.852104 -0.000000 92.264957
LeftHand 6.332591 -0.000000 37.892162
LeftHandThumb1 -26.253704 0.000000 33.147579
RightShoulder -3.528385 -5.737468 -17.865136
RightArm 15.084924 -20.289770 72.450020
RightForeArm 37.955615 -0.000000 97.270716
RightHand 1.851920 -0.000000 16.583461
RightHandThumb1 -24.326973 -0.000000 -32.862282
LeftUpLeg 2.854421 -1.510326 33.444173
LeftLeg 29.957522 -0.000000 -0.000000
LeftFoot -10.727479 -14.445286 -31.572057
LeftToeBase 2.888318 -0.000000 -0.000000
RightUpLeg -119.891148 -10.637970 11.358500
RightLeg 76.538599 -0.000000 -0.000000
RightFoot 44.615757 -4.408940 -0.741746
RightToeBase 37.693790 -0.000000 -0.000000
1337
root 1.145830 33.712940 -6.648435 -52.000047 39.788429 -47.244590
Spine 18.138706 -16.073908 14.565369
Head 11.221224 -6.119192 14.391816
LeftShoulder 1.628842 34.503295 30.906373
LeftArm 79.737963 24.721926 -40.242524
LeftForeArm -66.225551 0.000000 91.982517
LeftHand 6.272128 -0.000000 37.487881
LeftHandThumb1 -26.253704 0.000000 33.147579
RightShoulder -3.617661 -5.752461 -17.735490
RightArm 15.062268 -20.065859 72.348708
RightForeArm 37.549428 -0.000000 97.623528
RightHand 1.831658 -0.000000 16.480304
RightHandThumb1 -24.326973 -0.000000 -32.862282
LeftUpLeg 2.550384 -1.724785 35.030755
LeftLeg 29.647894 -0.000000 -0.000000
LeftFoot -10.714808 -14.232116 -31.378831
LeftToeBase 3.226256 -0.000000 -0.000000
RightUpLeg -119.641540 -11.340209 11.676549
RightLeg 76.841911 -0.000000 -0.000000
RightFoot 44.734350 -4.329078 -1.235499
RightToeBase 37.327493 -0.000000 -0.000000
1338
root 1.107941 33.764505 -6.616162 -52.646272 39.525898 -48.378798
Spine 17.787722 -16.218247 15.425150
Head 11.323195 -6.451341 14.566169
LeftShoulder 1.805993 34.404534 31.030026
LeftArm 79.741175 24.731529 -40.389330
LeftForeArm -66.613080 -0.000000 91.698595
LeftHand 6.042752 -0.000000 37.082453
LeftHandThumb1 -26.253704 0.000000 33.147579
RightShoulder -3.749403 -5.820168 -17.620491
RightArm 15.046159 -19.870621 72.280844
RightForeArm 37.254895 -0.000000 97.926253
RightHand 1.889424 -0.000000 16.201812
RightHandThumb1 -24.326973 -0.000000 -32.862282
LeftUpLeg 2.351120 -2.227737 35.805781
LeftLeg 29.180726 -0.000000 -0.000000
LeftFoot -11.028895 -13.775384 -31.034928
LeftToeBase 2.650505 -0.000000 -0.000000
RightUpLeg -119.392434 -12.176525 11.231331
RightLeg 77.156377 -0.000000 -0.000000
RightFoot 44.836079 -4.238200 -1.696175
RightToeBase 37.218013 -0.000000 -0.000000
1339
root 1.074834 33.816141 -6.584521 -53.296293 39.293927 -49.499573
Spine 17.437372 -16.383148 16.248924
Head 11.433405 -6.785858 14.738453
LeftShoulder 2.008333 34.375994 31.178869
LeftArm 79.762739 24.715688 -40.562018
LeftForeArm -66.982890 -0.000000 91.411790
LeftHand 5.843611 -0.000000 36.562613
LeftHandThumb1 -26.253704 0.000000 33.147579
RightShoulder -3.883125 -5.885260 -17.501003
RightArm 15.013973 -19.703925 72.201851
RightForeArm 36.964544 0.000000 98.247803
RightHand 1.859461 0.000000 15.771566
RightHandThumb1 -24.326973 -0.000000 -32.862282
LeftUpLeg 2.179586 -2.732842 36.538124
LeftLeg 28.685968 -0.000000 -0.000000
LeftFoot -11.352445 -13.295648 -30.659040
LeftToeBase 2.802374 -0.000000 -0.000000
RightUpLeg -119.139285 -13.057409 10.812484
RightLeg 77.505276 -0.000000 -0.000000
RightFoot 44.920771 -4.165693 -2.082723
RightToeBase 37.467435 -0.000000 -0.000000
1340
root 1.056197 33.874082 -6.567219 -54.074957 39.002820 -50.735280
Spine 17.105853 -16.634839 17.268056
Head 11.582820 -7.094835 14.750390
LeftShoulder 2.250031 34.261789 31.221626
LeftArm 79.747227 24.744381 -40.765683
LeftForeArm -67.448168 -0.000000 91.061540
LeftHand 5.764227 -0.000000 36.043836
LeftHandThumb1 -26.253704 0.000000 33.147579
RightShoulder -3.990256 -5.871109 -17.439863
RightArm 14.923098 -19.488834 72.099914
RightForeArm 36.673628 -0.000000 98.531671
RightHand 1.857354 -0.000000 15.665290
RightHandThumb1 -24.326973 -0.000000 -32.862282
LeftUpLeg 2.085526 -3.383819 37.317486
LeftLeg 28.093461 -0.000000 -0.000000
LeftFoot -11.738786 -12.777485 -30.247857
LeftToeBase 3.309225 -0.000000 -0.000000
RightUpLeg -118.584269 -14.030772 9.687092
RightLeg 77.904841 -0.000000 -0.000000
RightFoot 44.808132 -4.464515 -1.219183
RightToeBase 37.225096 -0.000000 -0.000000
1341
root 1.025459 33.921671 -6.541223 -54.655428 38.861582 -51.815989
Spine 16.682924 -16.842047 18.008281
Head 11.718127 -7.385496 14.900994
LeftShoulder 2.460758 34.141750 31.374799
LeftArm 79.711093 24.797624 -40.965534
LeftForeArm -67.853463 -0.000000 90.741364
LeftHand 5.652303 -0.000000 35.487640
LeftHandThumb1 -26.253704 0.000000 33.147579
RightShoulder -4.098872 -5.904338 -17.319871
RightArm 14.848652 -19.286583 72.061249
RightForeArm 36.313079 -0.000000 98.778915
RightHand 1.872278 -0.000000 15.316322
RightHandThumb1 -24.326973 -0.000000 -32.862282
LeftUpLeg 1.911620 -3.965550 37.935017
LeftLeg 27.480956 -0.000000 -0.000000
LeftFoot -12.136799 -12.274599 -29.881254
LeftToeBase 3.369965 -0.000000 -0.000000
RightUpLeg -118.356848 -14.974153 9.264110
RightLeg 78.238197 -0.000000 -0.000000
RightFoot 44.865685 -4.255820 -1.688738
RightToeBase 36.901481 -0.000000 -0.000000
